<?xml version="1.0"?>
<svg xmlns="http://www.w3.org/2000/svg" version="1.2" baseProfile="tiny" width="800" height="1372" viewBox="0 0 800 1372" stroke-linecap="round" stroke-linejoin="round">
<g id="localidad_urbano">
<path d="M 509.75 904.62 525.17 914.08 504.62 944.02 488.65 965.24 458.09 944.15 434.55 914.43 430.07 916.58 404.36 917.38 375.57 911.66 361.12 901.47 351.8 898.82 368.46 899.21 389.07 897.19 412.79 891.13 433.74 881.89 441.4 880.32 457.02 893.45 471.62 892.89 509.75 904.62 Z"/>
<path d="M 325.27 893.02 351.8 898.82 361.12 901.47 359.91 924.2 351.34 927.02 356.86 949.04 361.18 948.61 372.6 988.81 367.56 1000.93 373.32 1011.05 379.25 1027.42 387.05 1042.36 388.14 1080.13 377.85 1083.69 369.46 1082.43 362 1081.65 356.97 1074.98 372 1071.91 364.08 1063.82 348.31 1065.21 347.41 1054.12 336.88 1038.56 339.57 1034.6 339.76 1022.16 326.38 1016.1 314.88 1005.56 314.25 984.86 305 977.77 305.75 971.97 313.68 966.68 306.4 959.78 299.22 975.21 290.3 963.19 279.05 955.45 284.37 936.81 271.01 929.32 271.72 922.81 252.67 916.41 254.41 911.44 263.79 906.74 273.73 906.21 268.31 894.61 270.42 889.99 292.84 892.87 307.04 890.8 325.27 893.02 Z"/>
<path d="M 488.65 965.24 451.74 1006.52 444.43 1010.26 451.41 1019.22 461.49 1040.5 456.13 1074.47 459.46 1078.09 456.25 1085.8 465.12 1099.07 468.56 1108.63 457.08 1113.87 448.71 1109.66 443.14 1102.69 434.88 1103.1 421.31 1094.31 420.61 1099.25 406.38 1098.24 396.27 1090.05 388.14 1080.13 387.05 1042.36 379.25 1027.42 373.32 1011.05 367.56 1000.93 372.6 988.81 361.18 948.61 356.86 949.04 351.34 927.02 359.91 924.2 361.12 901.47 375.57 911.66 404.36 917.38 430.07 916.58 434.55 914.43 458.09 944.15 488.65 965.24 Z"/>
<path d="M 619.95 865.53 620.32 865.71 621.14 870.13 602.68 875.08 600.31 877.37 600.27 878.17 600.61 879.24 601.76 882.81 601.39 883.76 597.11 882.93 588.98 897.6 587.57 912.02 579.46 906 576.94 911.46 569.84 914.84 551.3 907.29 541.22 904.8 538.34 894.3 556.3 865.7 564.1 865.49 577.9 871.32 588.55 868.5 593.31 862.73 610.72 861.32 619.95 865.53 Z"/>
<path d="M 629.9 545.14 610.06 662.04 603.85 675.48 601.95 685.84 535.47 674.01 526.69 669.6 495.01 626.13 491.93 623.72 508.43 602.37 524.23 575 553.93 550.73 566.8 540.51 577.29 535.61 594.46 535.59 629.9 545.14 Z"/>
<path d="M 601.95 685.84 587.68 764.7 582.75 791.81 570.95 815.34 548.26 783.28 531.72 780.23 500.5 776.38 428.64 702.9 438.82 692.62 455.23 671.24 491.93 623.72 495.01 626.13 526.69 669.6 535.47 674.01 601.95 685.84 Z"/>
<path d="M 531.72 780.23 471.48 854.68 460.16 866.09 441.4 880.32 433.74 881.89 412.79 891.13 389.07 897.19 368.46 899.21 351.8 898.82 325.27 893.02 326.99 888.01 353.68 847.35 360.14 833.15 375.15 784.22 393.89 738.02 398.92 732.13 428.64 702.9 500.5 776.38 531.72 780.23 Z"/>
<path d="M 570.95 815.34 556.3 843.11 523.7 887.91 509.75 904.62 471.62 892.89 457.02 893.45 441.4 880.32 460.16 866.09 471.48 854.68 531.72 780.23 548.26 783.28 570.95 815.34 Z"/>
<path d="M 710.64 575.09 663.52 552.18 629.9 545.14 669.3 310.63 669.7 302.21 687.08 203.95 713.79 38.72 727.97 38.73 729.52 49.45 700.08 227.87 741.61 230.77 760.23 234.32 760.87 250.09 765.72 271.94 763.34 279.16 769.99 288.88 773.89 300.86 768.98 309.31 775.02 311.95 773.65 328.33 787.17 330.89 787.36 338.17 771.13 334.71 777.11 344.7 777.55 353.98 799 362.43 795.8 375.31 796.09 383.57 786.56 384 766.71 370.18 766.25 398.63 767.28 409.76 760.88 412.67 757.36 421.19 763.2 435.95 757.58 437.07 755.83 449.98 749.1 467.78 761.52 472.85 761.19 484.06 753.33 481.27 747.54 498.43 752.12 514.49 757.04 523.03 746.29 535 752.41 541.88 750.15 549.58 743.69 557.54 753.34 560.51 742.81 567.37 736.22 562.8 717.71 570.06 710.64 575.09 Z"/>
<path d="M 628.94 742.45 635.28 742.99 634.54 759.5 626.38 757.06 623.92 749.99 628.94 742.45 Z M 628.12 782.77 617.28 781.42 610.13 777.8 598.35 777.74 587.68 764.7 601.95 685.84 603.85 675.48 610.06 662.04 629.9 545.14 663.52 552.18 710.64 575.09 705.37 583.01 706.24 588.37 698.58 591.85 696.9 614.77 683.8 615.16 685 629.3 675.92 628.82 676.02 644.23 669.9 647.19 666.06 665.27 662.5 671.54 665.02 682.82 662.11 691.18 651.1 702.66 646.95 704.11 637.5 723.32 629.17 718.38 629.01 730.55 624.4 735.44 621.5 766.55 638.43 771.56 636.33 777.82 628.12 782.77 Z" fill-rule="evenodd"/>
<path d="M 602.68 875.08 621.14 870.13 620.32 865.71 619.67 871.3 602.68 875.08 Z M 628.12 782.77 624.07 788.6 615.2 793.01 610.11 808.31 600.41 828.75 600.51 836.97 605.12 844.01 604.13 858.89 619.95 865.53 610.72 861.32 593.31 862.73 588.55 868.5 577.9 871.32 564.1 865.49 556.3 865.7 538.34 894.3 541.22 904.8 551.3 907.29 569.84 914.84 576.94 911.46 579.46 906 587.57 912.02 588.98 897.6 597.11 882.93 601.39 883.76 595.41 887.36 597.55 897.55 609.39 918.17 600.2 929.6 598.47 936.74 595.42 936.32 592.4 939.46 592.44 940.57 593.21 944.52 588.63 946.04 587.95 946.29 587.9 946.35 587.79 946.47 587.76 946.51 587.49 946.87 587.39 946.99 586.23 948.42 586.04 948.44 585.93 948.76 585.73 949.06 585.56 949.28 585.38 949.54 585.09 949.94 584.9 950.27 583.89 952.19 583.56 957.33 582.88 958.29 581.85 960.56 581.24 960.58 579.91 957.83 579.89 957.82 576.27 962.55 575.3 961.74 571.32 961.06 566.42 963.46 561.28 954.89 554.39 951.24 540.85 927.31 525.17 914.08 509.75 904.62 523.7 887.91 556.3 843.11 570.95 815.34 582.75 791.81 587.68 764.7 598.35 777.74 610.13 777.8 617.28 781.42 628.12 782.77 Z" fill-rule="evenodd"/>
<path d="M 571.32 961.06 558.57 971.61 561.51 984.05 565.77 987.83 574.96 984.31 578.24 990.19 590.71 994.13 597.91 1008.49 587.36 1023.78 584.38 1010.88 588.32 1003.79 580.66 996.75 577.06 1001.32 568.29 992.67 564.76 1000.66 552.66 995.22 551.6 1001.87 558.55 1011.21 547.83 1032.16 539.84 1035.28 534.74 1042.21 543.57 1046.39 539.67 1053.18 559.02 1066.78 560.42 1073.92 558.74 1086.87 555.41 1093.11 559.6 1098.2 553.99 1106.23 550.27 1120.22 544.83 1131.42 544.02 1133.1 544.08 1135.31 541.41 1137.29 540.7 1137.07 539.67 1137.11 539.27 1137.11 538.44 1137.17 537.46 1137.43 537.28 1138.86 537.27 1138.97 538.78 1142.4 538.85 1142.46 539.54 1143.04 533.17 1147.01 531.05 1151.77 531.04 1151.86 530.7 1152.44 529.48 1153.31 529.37 1153.53 529.31 1153.79 528.68 1155.31 527 1157.14 527.57 1159.45 527.45 1159.49 526.99 1159.5 526.27 1160.11 525.97 1160.31 524.9 1161.08 523.64 1161.78 523.58 1165.21 521.84 1164.5 520.02 1165.54 516.57 1168.2 516.49 1168.88 517.45 1176.19 528.52 1179.8 525.26 1182.19 507.22 1178.55 503.01 1187.53 489.1 1187.9 491.53 1177.89 492.55 1160.23 489.48 1155.81 489.55 1142.6 485.88 1127.36 484.13 1108.25 473.45 1089.18 466.43 1080.97 459.46 1078.09 456.13 1074.47 461.49 1040.5 451.41 1019.22 444.43 1010.26 451.74 1006.52 488.65 965.24 504.62 944.02 525.17 914.08 540.85 927.31 554.39 951.24 561.28 954.89 566.42 963.46 571.32 961.06 Z"/>
<path d="M 385.5 1333.19 382.52 1341.71 384.6 1350.22 393.49 1346.85 395.51 1353.49 389.51 1362.07 376.28 1370.75 373.1 1366.5 364.44 1366 359.96 1355.26 351.83 1359.3 350.78 1351.38 355.38 1342.33 364.29 1341.87 379.45 1327.94 385.5 1333.19 Z M 430.26 1310.17 424.31 1300.64 429.44 1299.07 430.26 1310.17 Z M 543.84 1251.05 546.77 1257.16 534.26 1261.66 532.31 1256.65 543.84 1251.05 Z M 542.91 1238.68 548 1242.91 522.62 1251.9 524.51 1261.15 511.05 1262.19 505.52 1259.87 498.17 1251.23 495.89 1238.32 508.7 1239.29 508.7 1242.83 542.91 1238.68 Z M 532.47 1220.54 510.41 1231.14 511.24 1219.22 532.47 1220.54 Z M 528.52 1179.8 517.45 1176.19 516.49 1168.88 517.89 1175.79 528.52 1179.8 Z M 544.02 1133.1 544.83 1131.42 544.78 1131.6 544.63 1132.4 544.02 1133.1 Z M 507.22 1178.55 506.8 1182.89 513.13 1196.78 511.46 1203.19 499.12 1209.47 498.52 1217.44 482.87 1215.59 474.99 1218.36 475.21 1242.86 480.68 1246.02 482.05 1254.13 473.65 1251.99 469.72 1259.77 466.27 1281.17 473.27 1290.02 480.35 1288.63 482.78 1306.44 472.73 1310.75 446.76 1302.5 453.99 1296.61 450.77 1287.51 452.07 1276.89 448.03 1269.46 432.54 1278.93 429.05 1287.23 413.53 1299.71 391.34 1298.97 390.61 1287.66 386.98 1279.52 386.39 1276.26 385.39 1273.99 384.64 1270.19 385.55 1261.76 392.21 1261.59 399.97 1255.3 398.92 1247.99 379.86 1236.58 391.25 1229.68 387.56 1210.35 383.97 1202.88 385.29 1192.47 376.37 1186.8 377.83 1174.78 367.22 1155.2 374.38 1147.64 380.33 1148.12 380.89 1129.66 377.18 1121.57 372.27 1090.63 369.46 1082.43 377.85 1083.69 388.14 1080.13 396.27 1090.05 406.38 1098.24 420.61 1099.25 421.31 1094.31 434.88 1103.1 443.14 1102.69 448.71 1109.66 457.08 1113.87 468.56 1108.63 465.12 1099.07 456.25 1085.8 459.46 1078.09 466.43 1080.97 473.45 1089.18 484.13 1108.25 485.88 1127.36 489.55 1142.6 489.48 1155.81 492.55 1160.23 491.53 1177.89 489.1 1187.9 503.01 1187.53 507.22 1178.55 Z" fill-rule="evenodd"/>
<path d="M 284.88 1212.19 305.17 1218.98 304.73 1226.08 295.2 1229.03 278.32 1224.4 284.88 1212.19 Z M 270.42 889.99 268.31 894.61 273.73 906.21 263.79 906.74 254.41 911.44 252.67 916.41 271.72 922.81 271.01 929.32 284.37 936.81 279.05 955.45 290.3 963.19 299.22 975.21 306.4 959.78 313.68 966.68 305.75 971.97 305 977.77 314.25 984.86 314.88 1005.56 326.38 1016.1 339.76 1022.16 339.57 1034.6 336.88 1038.56 347.41 1054.12 348.31 1065.21 364.08 1063.82 372 1071.91 356.97 1074.98 362 1081.65 369.46 1082.43 372.27 1090.63 377.18 1121.57 380.89 1129.66 380.33 1148.12 374.38 1147.64 367.22 1155.2 363.56 1127.17 356.62 1122.27 336.17 1127.96 332.78 1122.49 317.96 1115.27 312.28 1123.25 301.6 1122.66 297.8 1133.37 291.39 1130.01 279.8 1132.21 275.29 1122.69 274.56 1109.62 263.66 1106.51 244.65 1107.1 242.81 1103.5 253.65 1092.83 254.08 1084.47 249.97 1077.61 242.84 1081.41 236.51 1099.98 231.81 1100.75 223.41 1093.53 233.38 1075.29 247.03 1072.05 229.64 1065.61 219.77 1065.58 222.46 1058.25 228.3 1055.35 245.09 1040.73 248.92 1035.43 239.93 1013.99 234.25 1014.94 230.49 1028.11 217.75 1033.42 222.9 1044.42 206.15 1051.53 198.84 1049.59 187.53 1053.62 177.81 1049.57 176.95 1032.38 179.16 1023.15 175.28 1016.63 173.24 1005.71 173.72 994.33 171.1 986.54 181.67 979.49 183.28 966.78 173.65 957.88 166.62 955.52 162.02 919.53 155.45 905.59 151.12 887.28 170.41 885.05 211.08 889.74 228.63 889.88 238.58 888.07 270.81 874.59 276.31 883.13 270.42 889.99 Z" fill-rule="evenodd"/>
<path d="M 148.56 706.23 173.8 761.38 178.5 782.8 175.94 789.1 160.35 801.6 145.68 802.34 146.08 813.95 154.22 815.52 160.97 824.64 172.87 832.23 173.88 841.77 179.77 861.48 192.39 861.74 186.06 868.97 188.15 873.03 202.55 871.58 207.92 858.36 229.26 849.68 242.9 852.88 261.01 864.17 270.81 874.59 238.58 888.07 228.63 889.88 211.08 889.74 170.41 885.05 151.12 887.28 74.45 870.77 73.68 875.79 20.16 806.13 10.89 799.57 11.63 786.41 1 780.24 5.86 762.7 11.34 759.73 23.31 762.83 31.18 760.74 37.49 767.15 41.24 806.91 46.77 816.79 53.69 812.01 58.84 816.88 70.02 813.55 75.81 801.09 72.97 789.13 64.45 794.53 60 784.25 84.33 773.8 81.69 770.09 63.31 729.34 72.92 725.67 79.28 718.38 90.54 716.66 96 710.97 81.98 700.23 88.54 692.2 108.36 681.57 111.46 687.24 118.87 678.46 132.89 688.09 132.01 694.95 137.83 703.77 148.56 706.23 Z"/>
<path d="M 327.48 653.04 330.71 655.99 345.28 685.22 357.78 690.08 371.09 702.52 375.69 715.85 398.92 732.13 393.89 738.02 375.15 784.22 360.14 833.15 353.68 847.35 326.99 888.01 325.27 893.02 307.04 890.8 292.84 892.87 270.42 889.99 276.31 883.13 270.81 874.59 261.01 864.17 242.9 852.88 229.26 849.68 207.92 858.36 202.55 871.58 188.15 873.03 186.06 868.97 192.39 861.74 179.77 861.48 173.88 841.77 172.87 832.23 160.97 824.64 154.22 815.52 146.08 813.95 145.68 802.34 160.35 801.6 175.94 789.1 178.5 782.8 173.8 761.38 148.56 706.23 163.45 695.19 173.15 681.43 179.91 677.62 190.14 678.07 197.61 669.16 214.2 670.84 225.59 684.23 243.93 673.81 246.08 677.43 261.98 660.95 290 687.18 304.96 671.74 289.63 662.41 308.15 650.42 318.47 660.3 327.48 653.04 Z"/>
<path d="M 455.23 671.24 438.82 692.62 428.64 702.9 398.92 732.13 375.69 715.85 371.09 702.52 357.78 690.08 345.28 685.22 330.71 655.99 327.48 653.04 331.55 648.54 317.15 635.15 308.57 634.36 299.47 639.79 289.68 638.06 274.87 628.91 257.13 631.74 250.06 623.06 247.18 614.1 240.61 609.76 221.4 607.64 211.24 603.76 219.96 597.5 225.6 603.91 232.01 588.83 246.25 582.9 253.02 577.04 252.02 571.61 242.83 559.75 232.79 566.82 240.29 575.45 237.56 579.68 223.94 587.37 216.62 578.18 206.23 588.12 197.22 581.04 199.16 568.31 206.83 563.9 211.07 556.65 220.59 547.53 221.4 534.25 211.29 526.12 202.09 527.83 199.81 519.49 206.7 514.54 202.71 508.88 210.46 500.89 223.18 506.64 236.98 487.2 221.19 474.88 234.07 473.15 233 467.72 241.9 464 255.95 464.89 259.64 460.43 260.89 447.39 258.29 427.3 260.91 428.58 381.34 519.46 391.06 524.77 398.54 538.27 374.89 552.83 389.09 567.17 455.23 671.24 Z"/>
<path d="M 553.93 550.73 524.23 575 508.43 602.37 491.93 623.72 455.23 671.24 389.09 567.17 374.89 552.83 398.54 538.27 391.06 524.77 381.34 519.46 260.91 428.58 258.29 427.3 249.03 424.45 251.14 417.01 272.7 419.73 283.56 415.94 289.2 407.07 312.19 395.91 318.84 398.97 337.59 399.65 346.47 396.43 350.25 401.77 358.95 405.76 366.39 403.2 372.85 396.9 371.13 390.8 380.99 383.09 379.86 377.22 368.07 360.26 377.41 345.95 364.46 349.66 371.88 343.55 389.88 346.13 390.22 352.03 396.25 357.58 412.91 364.08 414.69 373.29 443.17 397.45 453.1 398.53 452.77 404.48 466.39 414.39 467.63 425.95 480.7 429.58 492.97 446.58 493.31 452.36 502.06 454.94 507.03 463.02 507.36 469.38 513.6 473.95 512.16 500.9 521.54 505.42 526.15 516.62 540.23 521.28 542.52 530.3 553.93 550.73 Z"/>
<path d="M 651.07 179.09 648.45 192.55 643.01 192.22 645.64 178.73 651.07 179.09 Z M 597.88 154.03 587.71 170.87 580.72 166.9 589.79 150.34 597.88 154.03 Z M 626.54 136.97 626.35 147.38 618.49 146.56 620.09 136.86 626.54 136.97 Z M 610.64 99.89 607.41 109.61 603.08 108.15 606.28 98.42 610.64 99.89 Z M 713.79 38.72 687.08 203.95 669.7 302.21 669.3 310.63 629.9 545.14 594.46 535.59 577.29 535.61 566.8 540.51 553.93 550.73 542.52 530.3 540.23 521.28 526.15 516.62 521.54 505.42 512.16 500.9 513.6 473.95 507.36 469.38 507.03 463.02 502.06 454.94 493.31 452.36 492.97 446.58 480.7 429.58 467.63 425.95 466.39 414.39 452.77 404.48 453.1 398.53 443.17 397.45 414.69 373.29 412.91 364.08 396.25 357.58 390.22 352.03 389.88 346.13 371.88 343.55 364.46 349.66 348.69 342.75 354.62 330.75 354.86 323.44 366.86 322.13 372.65 318 384.62 316.96 394.61 313.7 392.01 306.34 380.71 303.98 374.28 293.45 392.51 294.35 394.45 289.19 390.22 269.3 393.49 265.87 406.57 262.38 413.73 267.34 416.51 261.65 424.9 269.69 436.61 265.91 442.6 253.68 463.15 260.9 479.25 264.75 485.06 263.54 488.33 269.67 500.13 274.31 505.19 269.2 514.63 278.03 526.51 272.45 556.09 272.89 562.73 270.87 576 258.28 592.51 234.8 603.25 224.57 608.82 222.63 622.55 232.59 636.35 225.28 665.38 233.48 682.71 128.53 660.73 124.84 664.6 106.47 685.67 110.6 689.42 87.88 681.64 86.34 632.71 67.6 625.04 59.53 628.73 34 636.76 34.58 635.29 46.9 642.52 47.72 646.93 10.25 673.63 13.23 681.25 9.41 685.87 1 690.79 7.75 692.17 16.75 714.03 20.43 712.07 33.26 713.79 38.72 Z" fill-rule="evenodd"/>
</g>
</svg>