<svg id="Capa_1" data-name="Capa 1" xmlns="http://www.w3.org/2000/svg" viewBox="0 0 150 150"><defs><style>.cls-1{fill:#333;}</style></defs><title>Íconos</title><path class="cls-1" d="M147.72,62.15c.53,2.9,13.29,76.7-56.89,84.88a3.45,3.45,0,0,1-3.38-5.19l20.45-37a111,111,0,0,0-10.58,10.57,104.07,104.07,0,0,0-13.15,18.81,3.45,3.45,0,0,1-6.49-1.85c0-11.07,1.78-27.77,10.91-42.51C97.85,74.86,114.47,62,144,59.23a3.45,3.45,0,0,1,3.74,2.93ZM76.39,82.73C31.88,49.62,71,4.29,71.11,4.17a3.45,3.45,0,0,1,4.64-.58C90.57,14.11,97.47,25.79,99.87,37c3.6,16.75-3,32.13-8.13,41h0a3.45,3.45,0,0,1-6.44-1.83A78,78,0,0,0,83.8,59c-.38-1.9-.83-3.86-1.38-5.87l-.52,26.8a3.46,3.46,0,0,1-5.51,2.84ZM59.17,132.78C-11,124.6,1.75,50.8,2.28,47.9A3.46,3.46,0,0,1,6,45C35.53,47.76,52.15,60.6,61.41,75.56,70.54,90.3,72.35,107,72.32,118.07a3.46,3.46,0,0,1-6.5,1.84A103.8,103.8,0,0,0,52.68,101.1,112.2,112.2,0,0,0,42.1,90.53l20.45,37.05a3.51,3.51,0,0,1,.46,2.15,3.46,3.46,0,0,1-3.84,3Z"/></svg>