<svg id="Capa_1" data-name="Capa 1" xmlns="http://www.w3.org/2000/svg" viewBox="0 0 150 150"><defs><style>.cls-1{fill:#333;}</style></defs><title>Íconos</title><path class="cls-1" d="M140.32,140.32V121.11a11.57,11.57,0,0,0-7.69-10.84v-66h.69a7.7,7.7,0,0,0,7.53-6.19l1.84-9.18H114.88l1.84,9.18a7.74,7.74,0,0,0,7.53,6.19h.69v66a11.49,11.49,0,0,0-7.68,10.84v19.21a3.84,3.84,0,1,0,0,7.68h23a3.84,3.84,0,1,0,0-7.68Z"/><path class="cls-1" d="M144.16,13.53h-1.81L140.93,7.8A7.65,7.65,0,0,0,133.47,2H124.1a7.66,7.66,0,0,0-7.46,5.8l-1.42,5.73h-1.8a3.84,3.84,0,0,0,0,7.68h30.74a3.84,3.84,0,1,0,0-7.68Z"/><path class="cls-1" d="M105.74,109.58H94.21v-7.69a7.7,7.7,0,0,0,7.69-7.68V78.84a7.71,7.71,0,0,0-7.69-7.69,3.84,3.84,0,1,0-7.68,0H25.05a3.84,3.84,0,0,0-7.68,0,7.71,7.71,0,0,0-7.69,7.69V94.21a7.71,7.71,0,0,0,7.69,7.69v7.69H5.84a3.84,3.84,0,0,0,0,7.68H9.68v26.89a3.84,3.84,0,0,0,7.68,0V128.79H94.21v15.37a3.84,3.84,0,0,0,7.68,0V117.27h3.84a3.84,3.84,0,0,0,0-7.68Zm-19.22,0H25.05v-7.69H86.52Z"/></svg>