<svg id="Capa_1" data-name="Capa 1" xmlns="http://www.w3.org/2000/svg" viewBox="0 0 150 150"><defs><style>.cls-1{fill:#333;fill-rule:evenodd;}</style></defs><title>Íconos</title><path class="cls-1" d="M34.58,60.32a13,13,0,0,0-3.55-9,11.73,11.73,0,0,0-16.57-.58c-.2.19-.39.38-.58.58a13.18,13.18,0,0,0,0,18,11.72,11.72,0,0,0,16.57.58c.2-.18.39-.38.58-.58A13,13,0,0,0,34.58,60.32ZM87.12,113.2a13,13,0,0,0-3.55-9A11.72,11.72,0,0,0,67,103.62c-.2.19-.39.38-.58.58a13.18,13.18,0,0,0,0,18,11.72,11.72,0,0,0,16.57.58c.2-.19.39-.38.58-.58A13,13,0,0,0,87.12,113.2Zm30.05-59.78a1.59,1.59,0,0,1-.13.22,13.53,13.53,0,0,0-1.31,3.08,13.24,13.24,0,0,0-.48,3.6,13,13,0,0,0,3.55,9,11.72,11.72,0,0,0,16.57.58,7.93,7.93,0,0,0,.58-.58,13.18,13.18,0,0,0,0-18,11.82,11.82,0,0,0-8.57-3.72,11.69,11.69,0,0,0-5.78,1.52,12.55,12.55,0,0,0-4.4,4.26l0,.05Zm-34.6-30,.18-.15.3-.27a13,13,0,0,0,4-8v-.06c0-.25,0-.47,0-.66h0c0-.19,0-.44,0-.75a13.06,13.06,0,0,0-3.55-9A11.73,11.73,0,0,0,67,3.85c-.2.19-.4.38-.58.58a13.07,13.07,0,0,0-3.56,9,7.5,7.5,0,0,0,0,.86c0,.25.05.54.09.88v.13A12.88,12.88,0,0,0,67,23a11.72,11.72,0,0,0,15.55.35Zm13.7,6.26a9.48,9.48,0,0,0-3.36-5,9.19,9.19,0,0,0-3.8-1.69,17.86,17.86,0,0,0,2-4.69,55.85,55.85,0,0,1,18.39,9.82,58.4,58.4,0,0,1,13.37,15.3,16.49,16.49,0,0,0-3.49,1.48,17,17,0,0,0-4,3.14A50.54,50.54,0,0,0,108,38.61a48.41,48.41,0,0,0-11.58-8.46l-.14-.51Zm-31.18-2H62.56a4.49,4.49,0,0,0-2.79.89A4.83,4.83,0,0,0,58.16,31c-.6,2.1-1.13,4.21-1.57,6.33a62.34,62.34,0,0,0-1,6.39,5.38,5.38,0,0,0,.22,2.11,5.14,5.14,0,0,0,1,1.83,4.7,4.7,0,0,0,3.62,1.67h29a5,5,0,0,0,2-.44,4.86,4.86,0,0,0,1.65-1.23,5.14,5.14,0,0,0,1-1.83,5.38,5.38,0,0,0,.22-2.11,59.7,59.7,0,0,0-1-6.39c-.43-2.12-1-4.23-1.57-6.33a4.6,4.6,0,0,0-1.65-2.47,4.74,4.74,0,0,0-2.9-.93H84.9A16.11,16.11,0,0,1,65.09,27.63ZM12.53,74.52H10a4.3,4.3,0,0,0-2.72.92,5.15,5.15,0,0,0-1.67,2.64c-.6,2.1-1.14,4.21-1.57,6.33a59.7,59.7,0,0,0-1,6.39,5.45,5.45,0,0,0,1.23,3.94A4.85,4.85,0,0,0,6,96a4.65,4.65,0,0,0,2,.44h29a5,5,0,0,0,3.7-1.67,5.18,5.18,0,0,0,1-1.84,5.53,5.53,0,0,0,.23-2.1,59.73,59.73,0,0,0-1-6.39c-.43-2.12-1-4.23-1.56-6.33a5,5,0,0,0-1.71-2.6,4.55,4.55,0,0,0-2.84-1H32.37a16.14,16.14,0,0,1-19.83,0Zm44.53,49.86a9,9,0,0,1,2-1.26,47.39,47.39,0,0,1-13.76-7.86,49.19,49.19,0,0,1-11.71-14H23.81A58.59,58.59,0,0,0,35.6,118.42a56.55,56.55,0,0,0,17.83,12.16l.28-1a10.43,10.43,0,0,1,3.35-5.2Zm8,3a16.14,16.14,0,0,0,19.89,0h2.37a4.52,4.52,0,0,1,2.84,1A5.09,5.09,0,0,1,91.84,131c.6,2.1,1.13,4.22,1.56,6.34a59.94,59.94,0,0,1,1,6.38,5.58,5.58,0,0,1-.23,2.11,5.27,5.27,0,0,1-1,1.84,4.91,4.91,0,0,1-1.63,1.23,4.84,4.84,0,0,1-2,.43H60.39a4.51,4.51,0,0,1-1.91-.42h0a5.07,5.07,0,0,1-1.62-1.25,5.34,5.34,0,0,1-1.23-3.95,59.91,59.91,0,0,1,1-6.38c.43-2.12,1-4.24,1.57-6.34a5.42,5.42,0,0,1,1.75-2.74,4.28,4.28,0,0,1,2.72-1h0l2.39.13Zm61.16-26.09h-9.84a48.86,48.86,0,0,1-11.7,14,47.37,47.37,0,0,1-14,7.93,9.29,9.29,0,0,1,2.22,1.28,9.93,9.93,0,0,1,3.37,5.11l.28,1a56.73,56.73,0,0,0,17.82-12.14A58.89,58.89,0,0,0,126.18,101.28Zm-8.72-26.76h-2.37a4.55,4.55,0,0,0-2.85,1,5.17,5.17,0,0,0-1.71,2.59L108,90.91a5.36,5.36,0,0,0,.23,2,5.18,5.18,0,0,0,1,1.84A4.91,4.91,0,0,0,110.87,96a4.73,4.73,0,0,0,2,.44c9.72,0,19.48.09,29.2,0a4.65,4.65,0,0,0,2-.44,4.85,4.85,0,0,0,1.64-1.23,5.45,5.45,0,0,0,1.23-3.94,59.7,59.7,0,0,0-1-6.39c-.43-2.12-1-4.23-1.57-6.33a4.83,4.83,0,0,0-4.7-3.56H137.3A16.15,16.15,0,0,1,117.46,74.52ZM58.87,18.24a17.85,17.85,0,0,0,2,4.67A8.82,8.82,0,0,0,57,24.62a9.67,9.67,0,0,0-3.31,5l-.14.51A48.44,48.44,0,0,0,42,38.64a50.08,50.08,0,0,0-7.46,9.45l-.2-.21a16.55,16.55,0,0,0-7.23-4.48,58.85,58.85,0,0,1,13.4-15.34A55.85,55.85,0,0,1,58.87,18.24Z"/></svg>