<svg id="Capa_1" data-name="Capa 1" xmlns="http://www.w3.org/2000/svg" viewBox="0 0 364 188"><defs><style>.cls-1{fill:#fff;}</style></defs><title>Logos distrito</title><path class="cls-1" d="M26.27,146.41H17.14v-11h9.13a5.51,5.51,0,1,1,0,11m-9.13-32.48h7.21a5.5,5.5,0,1,1,0,11H17.14Zm25.39,5.49a18.13,18.13,0,0,0-18.18-18H2.5V159H26.27a18,18,0,0,0,13.52-30.06,17.63,17.63,0,0,0,2.74-9.47"/><path class="cls-1" d="M75.8,144.88c-7.4,0-13.43-6.47-13.43-14.45S68.4,116,75.8,116s13.42,6.48,13.42,14.46-6,14.45-13.42,14.45m0-44.55c-16,0-29.07,13.51-29.07,30.1s13,30.1,29.07,30.1,29.06-13.48,29.06-30.1-13-30.1-29.06-30.1"/><path class="cls-1" d="M140.62,139.28h6.82v3.15a16.21,16.21,0,0,1-8.57,2.45c-8.49,0-15.39-6.47-15.39-14.45S130.38,116,138.87,116a15.9,15.9,0,0,1,10.73,4.11l1.52,1.39,10.55-11.53-1.51-1.39a31.4,31.4,0,0,0-21.29-8.21c-17.11,0-31,13.51-31,30.1s13.92,30.1,31,30.1a31.38,31.38,0,0,0,8.57-1.19v.13h15.65V123.66H140.62Z"/><polygon class="cls-1" points="243.32 118.3 243.32 159.46 261.87 159.46 261.87 118.3 279.38 118.3 279.38 100.61 225.75 100.61 225.75 118.3 243.32 118.3"/><polygon class="cls-1" points="361.5 184.12 326 89.75 294.15 89.75 268.08 159.34 287.39 159.34 310.04 102.09 342.19 184.12 361.5 184.12"/><path class="cls-1" d="M195.63,144.89c-7.4,0-13.42-6.48-13.42-14.47s6-14.45,13.42-14.45S209,122.46,209,130.42s-6,14.47-13.41,14.47m25.61-28.66,0-.06a29,29,0,0,0-25.58-15.84c-16,0-29.06,13.51-29.06,30.09s13,30.11,29.06,30.11,29.06-13.49,29.06-30.11a30.74,30.74,0,0,0-3.45-14.19"/><polygon class="cls-1" points="334.13 59.17 351.53 52.05 328.38 43.76 313.54 4.08 298.17 33.3 266.77 26.86 288.92 50.85 278.12 79.88 317.11 65.89 345.56 89.75 334.13 59.17"/><polygon class="cls-1" points="269.25 60.73 276.39 56.15 267.85 54.34 265.41 45.83 262.01 53.09 249.09 50.35 259.18 60.77 256.1 69.19 265.17 63.36 272.18 69.03 269.25 60.73"/><polygon class="cls-1" points="346.26 17.63 353.72 12.86 344.8 10.95 342.25 2.08 337.93 9.49 325.21 6.8 335.75 17.67 332.52 26.45 342.01 20.36 349.33 26.3 346.26 17.63"/></svg>