<svg id="Capa_1" data-name="Capa 1" xmlns="http://www.w3.org/2000/svg" viewBox="0 0 150 150"><defs><style>.cls-1{fill:#333;}</style></defs><title>Íconos</title><path class="cls-1" d="M145.54,91.41c-1.78-5-3.86-10.16-6.21-15.46-6.93-15.58-22.79-15.49-30.26-13.27a27.65,27.65,0,0,1-17.89-2.62c-3.41-1.7-4-6.89-4.05-9.84a7.25,7.25,0,0,0-5.62-6.93,2.74,2.74,0,0,0-.43-.08,8.83,8.83,0,0,0-1.2-.09,7.3,7.3,0,0,0-3.12.71A7.61,7.61,0,0,0,74.7,45.3a7,7,0,0,0-1.11,1.45,7.16,7.16,0,0,0-.94,3.68,33.32,33.32,0,0,0,2.13,11.48,21.47,21.47,0,0,0,2,3.92A19.6,19.6,0,0,0,81.49,71a21.5,21.5,0,0,0,3.21,2,43.45,43.45,0,0,0,11.73,3.92l1.22,24.45a1.77,1.77,0,0,1,0,.51L91.1,137.12a7.15,7.15,0,0,0,1.13,5.41,7.08,7.08,0,0,0,4.66,3,6.55,6.55,0,0,0,1.32.12,7.22,7.22,0,0,0,7.1-5.9l5.67-30.6,6,32.14a7.2,7.2,0,0,0,7.09,5.89,8.33,8.33,0,0,0,1.33-.12,7.18,7.18,0,0,0,5.9-7.07,10.22,10.22,0,0,0-.11-1.33l-6.53-35.34a.81.81,0,0,1,0-.39v-.06l.61-22.8a11.4,11.4,0,0,1,1,1.73c2.18,4.91,4.14,9.78,5.82,14.45a7.23,7.23,0,0,0,13.25.84,7.31,7.31,0,0,0,.32-5.69Z"/><path class="cls-1" d="M121.42,44.9a11.86,11.86,0,1,1-11.85-11.85A11.85,11.85,0,0,1,121.42,44.9"/><path class="cls-1" d="M69.54,45.3l-.59.06h-.06a7.29,7.29,0,0,0-6,7.05c0,2.94-.63,8.11-4,9.82A27.4,27.4,0,0,1,41,64.87c-7.46-2.23-23.34-2.31-30.28,13.26-3,6.71-5,12.11-6.2,15.47a7,7,0,0,0,.34,5.66,7.22,7.22,0,0,0,13.25-.82c1.13-3.16,3.05-8.23,5.83-14.45a11.69,11.69,0,0,1,.95-1.75l.62,22.82v0a3.58,3.58,0,0,1,0,.4l-6.55,35.37a8.19,8.19,0,0,0-.1,1.29,7.19,7.19,0,0,0,5.91,7.07,6.62,6.62,0,0,0,1.32.12,7.29,7.29,0,0,0,4.08-1.26,7.13,7.13,0,0,0,3-4.65L39,111.29l5.67,30.6a7.2,7.2,0,0,0,7.09,5.91,7,7,0,0,0,1.32-.12,7.22,7.22,0,0,0,5.79-8.42L52.38,104a3,3,0,0,1,0-.52l1.2-24.43A43.8,43.8,0,0,0,65.3,75.13a20.58,20.58,0,0,0,4.26-2.85A19.14,19.14,0,0,0,73.22,68c.64-1-3.38-8.23-3.66-10.38-.58-4.36,0-12.28,0-12.28Z"/><path class="cls-1" d="M52.28,47.07A11.85,11.85,0,1,1,40.43,35.21,11.85,11.85,0,0,1,52.28,47.07"/><path class="cls-1" d="M61.67,32.78l0,0a19.5,19.5,0,0,0,30.33,0l0,0,.08-.1a19.52,19.52,0,1,0-30.52,0,.61.61,0,0,0,.07.1Zm17-28A15.87,15.87,0,0,1,90.37,28.89L79,18.91a2.61,2.61,0,0,0-.27-.22Zm0,18.74,9.42,8.25a15.83,15.83,0,0,1-9.42,4.56ZM75,36.31a15.87,15.87,0,0,1-9.42-4.57L75,23.5ZM75,4.75V18.69a2.11,2.11,0,0,0-.23.19l-11.44,10A15.73,15.73,0,0,1,61,20.52,15.91,15.91,0,0,1,75,4.75Z"/></svg>