<svg id="Capa_1" data-name="Capa 1" xmlns="http://www.w3.org/2000/svg" viewBox="0 0 150 150"><defs><style>.cls-1{fill:#333;}</style></defs><title>Íconos</title><path class="cls-1" d="M75,90.33a14,14,0,1,0,14,14A14,14,0,0,0,75,90.33Z"/><path class="cls-1" d="M89,63.73a14,14,0,1,1-14-14,14,14,0,0,1,14,14"/><path class="cls-1" d="M75,9.08a14,14,0,1,0,14,14A14,14,0,0,0,75,9.08Z"/><path class="cls-1" d="M94.22.67H55.78a4,4,0,0,0-4,4V122.75a4,4,0,0,0,4,4H68.3v20.58a2,2,0,0,0,2,2h9.44a2,2,0,0,0,2-2V126.78H94.21a4,4,0,0,0,4-4l0-118a4,4,0,0,0-4-4ZM75,122.31a18,18,0,1,1,18-18A18,18,0,0,1,75,122.31Zm0-40.63a18,18,0,1,1,18-18A18,18,0,0,1,75,81.68Zm0-40.62a18,18,0,1,1,18-18A18,18,0,0,1,75,41.06Z"/></svg>