<svg id="Capa_1" data-name="Capa 1" xmlns="http://www.w3.org/2000/svg" viewBox="0 0 150 150"><defs><style>.cls-1{fill:#333;}</style></defs><title>Íconos</title><path class="cls-1" d="M145.3,1H120.56a1.49,1.49,0,0,0-1.49,1.48v7.7a1.49,1.49,0,0,0,1.49,1.48h8l-8.74,8.74A29.58,29.58,0,1,0,127,28.29l9.07-9.07v8a1.49,1.49,0,0,0,1.49,1.49h7.69a1.49,1.49,0,0,0,1.48-1.49l0-24.73A1.49,1.49,0,0,0,145.3,1ZM102,62.84A18.84,18.84,0,1,1,120.82,44,18.86,18.86,0,0,1,102,62.84ZM27.48,66.17h-9.9a1.48,1.48,0,0,0-1.48,1.48v7.69a1.49,1.49,0,0,0,1.48,1.49h9.9v9.88A1.49,1.49,0,0,0,29,88.2h7.69a1.49,1.49,0,0,0,1.49-1.49V76.83H48a1.49,1.49,0,0,0,1.48-1.49V67.65A1.48,1.48,0,0,0,48,66.17H38.15V59.7a29.61,29.61,0,1,0-10.67,0ZM14,30.59A18.84,18.84,0,1,1,32.81,49.43,18.85,18.85,0,0,1,14,30.59ZM103.88,143.5v2.56a1.94,1.94,0,0,1-1.94,1.94H43.24a1.93,1.93,0,0,1-1.93-1.94V143.5a1.93,1.93,0,0,1,1.93-1.94h58.7A1.94,1.94,0,0,1,103.88,143.5ZM45.12,123.82a10.72,10.72,0,0,1-10.72-10.7v-5.19h3.71v5.19a7,7,0,0,0,7,7H59.38a16.67,16.67,0,0,1-.69,3.71Zm62-15.9h3.7v5.19a10.73,10.73,0,0,1-10.71,10.71H86.48a16.68,16.68,0,0,1-.7-3.71h14.27a7,7,0,0,0,7-7v-5.19ZM86.63,97.32h44.19L126,105H91.51l-4.87-7.64ZM53.1,138.59h39l-5.77-8.48a19.52,19.52,0,0,1-3.55-11.52v-4.23c0-6.93-5.27-10.08-10.17-10.08s-10.17,3.15-10.17,10.08v4.23a19.58,19.58,0,0,1-3.54,11.52l-5.78,8.48Zm19.49-29.25a5.24,5.24,0,1,1-5.24,5.24A5.24,5.24,0,0,1,72.59,109.34Zm-2.26,5.23a2.27,2.27,0,1,1,2.27,2.28A2.27,2.27,0,0,1,70.33,114.57ZM53.67,105H19.23l-4.87-7.63H58.55L53.68,105Z"/></svg>