<svg id="Capa_1" data-name="Capa 1" xmlns="http://www.w3.org/2000/svg" viewBox="0 0 150 150"><defs><style>.cls-1{fill:#333;fill-rule:evenodd;}</style></defs><title>Íconos</title><path class="cls-1" d="M13.18,7H79.25V130.64h33.61v-27c-13.33-1.93-23.37-10.82-23.37-21.44,0-6,3.09-11.4,8.11-15.26.2-15.07,9.47-27.24,20.87-27.24s20.67,12.17,20.86,27.24c5,3.86,8.11,9.27,8.11,15.26,0,10.62-10,19.51-23.37,21.44v27H137V143H2.56V130.64H13.18Zm11,13.91H41V39.07H24.19Zm27.05,76.5H68.05v18.16H51.24Zm0-25.5H68.05V90.07H51.24Zm0-25.5H68.05V64.57H51.24Zm-27,51H41v18.16H24.19Zm0-25.5H41V90.07H24.19Zm0-25.5H41V64.57H24.19Zm27.05-25.5H68.05V39.07H51.24Z"/></svg>